<svg xmlns="http://www.w3.org/2000/svg" viewBox="0 0 512 512" width="100%" height="100%">
  <defs>
    <!-- Gradient nền -->
    <linearGradient id="bg-grad" x1="0%" y1="0%" x2="100%" y2="100%">
      <stop offset="0%" stop-color="#0f172a" />
      <stop offset="100%" stop-color="#1e293b" />
    </linearGradient>

    <!-- Gradient cho chữ HL -->
    <linearGradient id="text-grad" x1="0%" y1="0%" x2="100%" y2="100%">
      <stop offset="0%" stop-color="#38bdf8" />
      <stop offset="100%" stop-color="#818cf8" />
    </linearGradient>

    <!-- Bộ lọc tạo bóng nhẹ -->
    <filter id="shadow" x="-10%" y="-10%" width="120%" height="120%">
      <feDropShadow dx="0" dy="4" stdDeviation="6" flood-opacity="0.3"/>
    </filter>
  </defs>

  <!-- Nền hình vuông bo góc -->
  <rect width="512" height="512" rx="112" fill="url(#bg-grad)" />

  <!-- Nhóm chữ HL -->
  <g fill="url(#text-grad)" filter="url(#shadow)">
    <!-- Chữ H -->
    <path d="M120 150 C120 141.163 127.163 134 136 134 H164 C172.837 134 180 141.163 180 150 V226 H244 V150 C244 141.163 251.163 134 260 134 H288 C296.837 134 304 141.163 304 150 V362 C304 370.837 296.837 378 288 378 H260 C251.163 378 244 370.837 244 362 V286 H180 V362 C180 370.837 172.837 378 164 378 H136 C127.163 378 120 370.837 120 362 V150 Z" />
    
    <!-- Chữ L -->
    <path d="M328 150 C328 141.163 335.163 134 344 134 H372 C380.837 134 388 141.163 388 150 V318 H424 C432.837 318 440 325.163 440 334 V362 C440 370.837 432.837 378 424 378 H344 C335.163 378 328 370.837 328 362 V150 Z" />
  </g>
</svg>
